<?xml version="1.0" standalone="no"?><!DOCTYPE svg PUBLIC "-//W3C//DTD SVG 1.1//EN" "http://www.w3.org/Graphics/SVG/1.1/DTD/svg11.dtd"><svg t="1490535934046" class="icon" style="" viewBox="0 0 1024 1024" version="1.1" xmlns="http://www.w3.org/2000/svg" p-id="1739" xmlns:xlink="http://www.w3.org/1999/xlink" width="32" height="32"><defs><style type="text/css"></style></defs><path d="M1011.2 490.666667l-230.4-401.066667c-8.533333-12.8-25.6-21.333333-38.4-21.333333L281.6 68.266667c-12.8 0-29.866667 8.533333-38.4 21.333333l-230.4 401.066667c-8.533333 12.8-8.533333 29.866667 0 42.666667l230.4 401.066667c8.533333 12.8 25.6 21.333333 38.4 21.333333l460.8 0c12.8 0 29.866667-8.533333 38.4-21.333333l230.4-401.066667C1019.733333 520.533333 1019.733333 503.466667 1011.2 490.666667zM554.666667 341.333333c0 25.6-17.066667 42.666667-42.666667 42.666667-25.6 0-42.666667-17.066667-42.666667-42.666667 0-25.6 17.066667-42.666667 42.666667-42.666667C537.6 298.666667 554.666667 315.733333 554.666667 341.333333zM512 853.333333C512 853.333333 507.733333 853.333333 512 853.333333c-192-4.266667-341.333333-153.6-341.333333-341.333333 0-187.733333 153.6-341.333333 341.333333-341.333333l0 0 0 0C418.133333 170.666667 341.333333 247.466667 341.333333 341.333333s76.8 170.666667 170.666667 170.666667l0 0c0 0 0 0 0 0 93.866667 0 170.666667 76.8 170.666667 170.666667S605.866667 853.333333 512 853.333333z" p-id="1740"></path><path d="M512 682.666667m-42.666667 0a1 1 0 1 0 85.333333 0 1 1 0 1 0-85.333333 0Z" p-id="1741"></path></svg>