<?xml version="1.0" standalone="no"?><!DOCTYPE svg PUBLIC "-//W3C//DTD SVG 1.1//EN" "http://www.w3.org/Graphics/SVG/1.1/DTD/svg11.dtd"><svg t="1490536085255" class="icon" style="" viewBox="0 0 1024 1024" version="1.1" xmlns="http://www.w3.org/2000/svg" p-id="4505" xmlns:xlink="http://www.w3.org/1999/xlink" width="32" height="32"><defs><style type="text/css"></style></defs><path d="M512 85.333333c119.466667 0 226.133333 46.933333 302.933333 128l110.933333 0C836.266667 85.333333 682.666667 0 512 0S187.733333 85.333333 98.133333 213.333333l110.933333 0C285.866667 132.266667 392.533333 85.333333 512 85.333333z" p-id="4506"></path><path d="M977.066667 443.733333l-4.266667 12.8L938.666667 520.533333c-4.266667 136.533333-68.266667 256-170.666667 328.533333l0-85.333333 85.333333-170.666667-85.333333 0 0-42.666667 106.666667 0 64-128-170.666667 0L768 384l192 0L1024 256l-81.066667 0L768 256c0 0-89.6-64-256-64S256 256 256 256L85.333333 256 0 256l64 128L256 384l0 42.666667L85.333333 426.666667l64 128L256 554.666667l0 42.666667L170.666667 597.333333l85.333333 170.666667 0 85.333333c-102.4-76.8-166.4-196.266667-170.666667-328.533333l-38.4-76.8L29.866667 413.866667 17.066667 384C4.266667 426.666667 0 469.333333 0 512c0 281.6 230.4 512 512 512s512-230.4 512-512c0-42.666667-4.266667-85.333333-17.066667-128L977.066667 443.733333zM460.8 401.066667 512 298.666667l51.2 102.4 110.933333 17.066667-81.066667 81.066667 17.066667 110.933333L512 554.666667l-102.4 51.2 17.066667-110.933333L349.866667 418.133333 460.8 401.066667zM682.666667 840.533333 512 938.666667l-170.666667-98.133333 0-93.866667 170.666667 98.133333 170.666667-98.133333L682.666667 840.533333z" p-id="4507"></path></svg>