<?xml version="1.0" standalone="no"?><!DOCTYPE svg PUBLIC "-//W3C//DTD SVG 1.1//EN" "http://www.w3.org/Graphics/SVG/1.1/DTD/svg11.dtd"><svg t="1491222842004" class="icon" style="" viewBox="0 0 1117 1024" version="1.1" xmlns="http://www.w3.org/2000/svg" p-id="15456" xmlns:xlink="http://www.w3.org/1999/xlink" width="139.625" height="128"><defs><style type="text/css"></style></defs><path d="M1021.672727 963.490909c16.290909-18.618182 25.6-41.890909 25.6-67.490909 0-39.563636-23.272727-74.472727-60.509091-90.763636-51.2 83.781818-125.672727 153.6-214.109091 200.145454 23.272727 11.636364 48.872727 18.618182 74.472728 18.618182s48.872727-4.654545 69.818182-16.290909c20.945455 9.309091 44.218182 16.290909 69.818181 16.290909 46.545455 0 88.436364-18.618182 111.709091-46.545455-27.927273-2.327273-53.527273-6.981818-76.8-13.963636zM209.454545 465.454545c11.636364 0 23.272727-2.327273 34.909091-4.654545 27.927273-9.309091 46.545455-34.909091 46.545455-65.163636 0-39.563636-30.254545-69.818182-69.818182-69.818182-6.981818 0-11.636364 2.327273-16.290909 6.981818s-6.981818 9.309091-6.981818 16.290909c0 13.963636-9.309091 23.272727-23.272727 23.272727s-23.272727-9.309091-23.272728-23.272727c0-18.618182 6.981818-37.236364 20.945455-48.872727 11.636364-13.963636 30.254545-20.945455 48.872727-20.945455 65.163636 0 116.363636 51.2 116.363636 116.363637 0 30.254545-11.636364 55.854545-30.254545 76.8 25.6 9.309091 55.854545 16.290909 88.436364 16.290909 51.2 0 97.745455-16.290909 134.981818-39.563637 18.618182 11.636364 39.563636 16.290909 62.836363 16.290909 20.945455 0 39.563636-4.654545 58.181819-13.963636 13.963636-39.563636 23.272727-81.454545 23.272727-125.672727 0-32.581818-4.654545-65.163636-13.963636-97.745455-18.618182-11.636364-41.890909-18.618182-67.49091-18.618182-9.309091 0-18.618182 0-27.927272 2.327273C528.290909 167.563636 465.454545 139.636364 395.636364 139.636364s-130.327273 27.927273-167.563637 69.818181H209.454545c-76.8 0-139.636364 58.181818-139.636363 128S132.654545 465.454545 209.454545 465.454545zM211.781818 747.054545c2.327273-13.963636 6.981818-25.6 13.963637-37.236363-93.090909-23.272727-172.218182-79.127273-223.418182-155.927273 6.981818 97.745455 41.890909 188.509091 97.745454 262.981818 25.6-39.563636 65.163636-65.163636 111.709091-69.818182z" p-id="15457"  ></path><path d="M1024 512C1024 242.036364 816.872727 23.272727 551.563636 2.327273 653.963636 72.145455 721.454545 190.836364 721.454545 325.818182c0 174.545455-111.709091 321.163636-269.963636 374.690909-20.945455-16.290909-48.872727-25.6-79.127273-25.6-6.981818 0-13.963636 0-20.945454 2.327273h-4.654546c-6.981818 2.327273-11.636364 2.327273-18.618181 4.654545-2.327273 0-2.327273 0-4.654546 2.327273l-13.963636 6.981818c-2.327273 0-2.327273 2.327273-4.654546 2.327273-4.654545 2.327273-9.309091 6.981818-13.963636 9.309091l-4.654546 4.654545c-2.327273 2.327273-6.981818 4.654545-9.30909 9.309091l-4.654546 4.654545c-9.309091 11.636364-16.290909 27.927273-16.290909 46.545455v23.272727h-23.272727c-44.218182 0-83.781818 25.6-102.4 62.836364-2.327273 6.981818-6.981818 11.636364-6.981818 18.618182 0 2.327273-2.327273 4.654545-2.327273 6.981818 0 2.327273 0 4.654545-2.327273 6.981818-2.327273 6.981818-2.327273 13.963636-2.327273 20.945455 0 65.163636 51.2 116.363636 116.363637 116.363636 27.927273 0 51.2-9.309091 72.145454-25.6C288.581818 977.454545 279.272727 954.181818 279.272727 930.909091c0-65.163636 79.127273-88.436364 186.181818-93.090909-79.127273 6.981818-139.636364 44.218182-139.636363 93.090909 0 37.236364 39.563636 69.818182 95.418182 83.781818 30.254545 4.654545 60.509091 9.309091 90.763636 9.309091 283.927273 0 512-228.072727 512-512z" p-id="15458"  ></path></svg>