<?xml version="1.0" standalone="no"?><!DOCTYPE svg PUBLIC "-//W3C//DTD SVG 1.1//EN" "http://www.w3.org/Graphics/SVG/1.1/DTD/svg11.dtd"><svg t="1491222893663" class="icon" style="" viewBox="0 0 1024 1024" version="1.1" xmlns="http://www.w3.org/2000/svg" p-id="15942" xmlns:xlink="http://www.w3.org/1999/xlink" width="128" height="128"><defs><style type="text/css"></style></defs><path d="M838.4 467.2c-34.133333-4.266667-108.8-17.066667-179.2-32 64-10.666667 125.866667-23.466667 157.866667-27.733333 72.533333-10.666667 132.266667-59.733333 132.266666-132.266667s-59.733333-132.266667-132.266666-132.266667h-10.666667v-10.666666c0-72.533333-59.733333-132.266667-132.266667-132.266667s-121.6 59.733333-132.266666 132.266667c-4.266667 32-17.066667 100.266667-29.866667 168.533333-12.8-66.133333-25.6-136.533333-29.866667-168.533333-8.533333-72.533333-59.733333-132.266667-132.266666-132.266667S217.6 59.733333 217.6 132.266667v10.666666h-10.666667C134.4 142.933333 74.666667 202.666667 74.666667 275.2s59.733333 121.6 132.266666 132.266667c29.866667 4.266667 93.866667 14.933333 157.866667 27.733333-70.4 12.8-145.066667 25.6-179.2 32-72.533333 8.533333-132.266667 59.733333-132.266667 132.266667s59.733333 132.266667 132.266667 132.266666h10.666667v10.666667c0 72.533333 59.733333 132.266667 132.266666 132.266667s121.6-59.733333 132.266667-132.266667c2.133333-23.466667 10.666667-64 19.2-108.8v104.533333C480 923.733333 588.8 1024 768 1024c17.066667 0 32-14.933333 32-32s-14.933333-32-32-32C622.933333 960 544 887.466667 544 736v-104.533333c8.533333 44.8 14.933333 87.466667 19.2 108.8 10.666667 72.533333 59.733333 132.266667 132.266667 132.266666s132.266667-59.733333 132.266666-132.266666v-10.666667h10.666667c72.533333 0 132.266667-59.733333 132.266667-132.266667s-59.733333-121.6-132.266667-130.133333z" p-id="15943" fill="#d4237a"></path></svg>