<?xml version="1.0" standalone="no"?><!DOCTYPE svg PUBLIC "-//W3C//DTD SVG 1.1//EN" "http://www.w3.org/Graphics/SVG/1.1/DTD/svg11.dtd"><svg t="1490536126536" class="icon" style="" viewBox="0 0 1024 1024" version="1.1" xmlns="http://www.w3.org/2000/svg" p-id="5163" xmlns:xlink="http://www.w3.org/1999/xlink" width="32" height="32"><defs><style type="text/css"></style></defs><path d="M981.333333 512c0-260.266667-209.066667-469.333333-469.333333-469.333333S42.666667 251.733333 42.666667 512c0 51.2 17.066667 102.4 42.666667 149.333333 0 0 0-4.266667 0-4.266667 0-29.866667 12.8-55.466667 38.4-68.266667 76.8-42.666667 200.533333 98.133333 226.133333 209.066667 8.533333 46.933333 12.8 93.866667 8.533333 136.533333C418.133333 964.266667 473.6 981.333333 512 981.333333c38.4 0 93.866667-21.333333 153.6-51.2-4.266667-38.4 0-89.6 8.533333-136.533333 25.6-110.933333 149.333333-251.733333 226.133333-209.066667 25.6 17.066667 38.4 38.4 38.4 68.266667 0 0 0 0 0 0C964.266667 610.133333 981.333333 558.933333 981.333333 512zM401.066667 486.4c-42.666667 64-115.2 93.866667-162.133333 59.733333s-55.466667-110.933333-17.066667-174.933333c42.666667-64 115.2-93.866667 162.133333-59.733333C435.2 341.333333 439.466667 422.4 401.066667 486.4zM597.333333 746.666667c0 46.933333-38.4 85.333333-85.333333 85.333333-46.933333 0-85.333333-38.4-85.333333-85.333333L426.666667 640c0-46.933333 38.4-85.333333 85.333333-85.333333 46.933333 0 85.333333 38.4 85.333333 85.333333L597.333333 746.666667zM789.333333 546.133333c-51.2 29.866667-123.733333 4.266667-162.133333-59.733333-42.666667-64-34.133333-140.8 17.066667-174.933333 51.2-29.866667 123.733333-4.266667 162.133333 59.733333C844.8 439.466667 836.266667 516.266667 789.333333 546.133333z" p-id="5164"></path><path d="M149.333333 622.933333c-21.333333 12.8-21.333333 25.6-4.266667 106.666667 8.533333 42.666667 17.066667 72.533333 17.066667 106.666667 0 25.6 0 46.933333 0 68.266667-4.266667 42.666667-4.266667 38.4 0 42.666667 0 4.266667 4.266667 4.266667 8.533333 8.533333 4.266667 4.266667 34.133333 12.8 72.533333 17.066667 34.133333 0 68.266667 0 76.8-4.266667 8.533333-4.266667 17.066667-93.866667 0-170.666667C290.133333 716.8 187.733333 601.6 149.333333 622.933333z" p-id="5165"></path><path d="M878.933333 622.933333c-42.666667-21.333333-145.066667 93.866667-162.133333 179.2-17.066667 72.533333-8.533333 162.133333 0 170.666667 4.266667 4.266667 42.666667 4.266667 76.8 4.266667 38.4 0 68.266667-8.533333 72.533333-17.066667 4.266667-4.266667 4.266667-8.533333 8.533333-8.533333 0-4.266667 0 0 0-42.666667 0-21.333333 0-42.666667 0-68.266667 0-34.133333 4.266667-64 17.066667-106.666667C904.533333 648.533333 904.533333 635.733333 878.933333 622.933333z" p-id="5166"></path></svg>