<?xml version="1.0" standalone="no"?><!DOCTYPE svg PUBLIC "-//W3C//DTD SVG 1.1//EN" "http://www.w3.org/Graphics/SVG/1.1/DTD/svg11.dtd"><svg t="1490535873755" class="icon" style=" " viewBox="0 0 1028 1024" version="1.1" xmlns="http://www.w3.org/2000/svg" p-id="2437" xmlns:xlink="http://www.w3.org/1999/xlink" width="32.125" height="32"><defs><style type="text/css"></style></defs><path d="M490.339808 904.536096C511.672648 823.471304 769.800012 763.739352 846.598236 597.3432c-19.199556 10.66642-40.532396 19.199556-61.865236 25.599408-93.864496 25.599408-170.66272 17.066272-230.394672-2.133284-74.66494 66.131804-268.793784 100.264348-260.260648 264.527216 8.533136 200.528696 394.65754 115.197336 394.65754 115.197336S462.607116 1002.66716 490.339808 904.536096z" p-id="2438"></path><path d="M752.73374 772.272488c-132.263608 70.398372-230.394672 115.197336-223.99482 147.196596 8.533136 42.66568 140.796744 63.99852 198.395412 44.798964 57.598668-21.33284 147.196596-113.064052 183.462424-95.99778 36.265828 17.066272 31.99926 78.931508-10.66642 151.463164 57.598668-44.798964 115.197336-157.863016 61.865236-230.394672C908.463472 718.940388 808.199124 744.539796 752.73374 772.272488z" p-id="2439"></path><path d="M187.413479 610.142904c66.131804-59.731952 38.399112-42.66568 70.398372-162.129584 25.599408-102.397632 108.797484-89.597928 174.929288-198.395412S456.207264-2.109605 434.874424 0.023679c-29.865976 4.266568 25.599408 55.465384-29.865976 181.32914 6.399852-49.065532-4.266568-87.464644-29.865976-81.064792 25.599408 70.398372-44.798964 166.396152-142.930028 217.594968-113.064052 57.598668-53.3321 100.264348-91.731212 153.596448s-61.865236 74.66494-76.798224 85.33136c-44.798964-10.66642-98.131064 66.131804-34.132544 102.397632 6.399852-27.732692 29.865976-31.99926 34.132544 6.399852 21.33284 25.599408 59.731952 44.798964 95.99778 12.799704C106.348687 674.141424 149.014367 646.408732 187.413479 610.142904zM202.346467 418.147344c10.66642-17.066272 61.865236-40.532396 68.265088-34.132544 0 0-17.066272 21.33284-23.466124 34.132544-12.799704 27.732692-19.199556 51.198816-42.66568 40.532396C191.680047 452.279888 189.546763 435.213616 202.346467 418.147344z" p-id="2440"></path><path d="M398.608596 576.01036c-74.66494 25.599408-119.463904 2.133284-134.396892-42.66568 0 44.798964-27.732692 153.596448-115.197336 181.32914C251.411999 774.405772 317.543803 605.876336 398.608596 576.01036z" p-id="2441"></path><path d="M117.015107 330.6827c19.199556-66.131804 121.597188-89.597928 104.530916-181.32914-17.066272 98.131064-89.597928 85.33136-123.730472 166.396152C65.816291 394.68122 108.481971 469.34616 65.816291 539.744532 129.814811 448.01332 87.149131 439.480184 117.015107 330.6827z" p-id="2442"></path><path d="M304.744099 418.147344c-42.66568 49.065532-40.532396 157.863016 66.131804 138.66346s138.66346-191.99556 81.064792-300.793044C428.474572 339.215836 347.409779 369.081812 304.744099 418.147344z" p-id="2443"></path><path d="M605.537144 251.751192c-34.132544 19.199556-61.865236 38.399112-91.731212 49.065532 6.399852 25.599408 10.66642 53.3321 10.66642 81.064792 0 27.732692-4.266568 55.465384-10.66642 78.931508-8.533136 27.732692-19.199556 53.3321-34.132544 74.66494 241.061092 134.396892 435.189936-23.466124 492.788604-115.197336-106.6642 34.132544-174.929288 59.731952-262.393932 61.865236 132.263608-19.199556 268.793784-93.864496 317.859316-191.99556-59.731952-31.99926-110.930768-51.198816-155.729732-66.131804 29.865976-6.399852 57.598668-12.799704 83.198076-25.599408C684.468652 25.623087 539.40534 194.152524 477.540104 228.285068c10.66642 14.932988 19.199556 29.865976 25.599408 46.932248C537.272056 264.550896 571.4046 256.01776 605.537144 251.751192z" p-id="2444"></path></svg>