<?xml version="1.0" standalone="no"?><!DOCTYPE svg PUBLIC "-//W3C//DTD SVG 1.1//EN" "http://www.w3.org/Graphics/SVG/1.1/DTD/svg11.dtd"><svg t="1491222855851" class="icon" style="" viewBox="0 0 1024 1024" version="1.1" xmlns="http://www.w3.org/2000/svg" p-id="15629" xmlns:xlink="http://www.w3.org/1999/xlink" width="128" height="128"><defs><style type="text/css"></style></defs><path d="M981.333333 305.066667c21.333333 53.333333 32 113.066667 32 174.933333C1013.333333 744.533333 797.866667 960 533.333333 960 309.333333 960 128 855.466667 128 725.333333c0-66.133333 49.066667-128 125.866667-170.666666C151.466667 595.2 85.333333 657.066667 85.333333 725.333333c0 164.266667 192 298.666667 426.666667 298.666667 283.733333 0 512-228.266667 512-512 0-74.666667-14.933333-142.933333-42.666667-206.933333z" p-id="15630" fill="#d4237a"></path><path d="M341.333333 307.2c-53.333333 49.066667-89.6 117.333333-102.4 192 32-78.933333 113.066667-136.533333 209.066667-136.533333 36.266667 0 64 27.733333 64 64 0 83.2-66.133333 149.333333-149.333333 149.333333-106.666667 0-192 66.133333-192 149.333333 0 55.466667 44.8 104.533333 117.333333 134.4-21.333333-40.533333-32-85.333333-32-134.4v-4.266666 4.266666c0 93.866667 142.933333 170.666667 320 170.666667 87.466667 0 168.533333-34.133333 230.4-89.6C750.933333 836.266667 667.733333 853.333333 576 853.333333c-93.866667 0-170.666667-46.933333-170.666667-106.666666 0-29.866667 19.2-55.466667 49.066667-74.666667 25.6 6.4 51.2 10.666667 78.933333 10.666667 153.6 0 277.333333-108.8 277.333334-245.333334 0-68.266667-32-106.666667-64-181.333333 17.066667 0 36.266667-8.533333 46.933333-17.066667 8.533333-2.133333 17.066667-4.266667 27.733333-4.266666 27.733333 0 49.066667 12.8 53.333334 27.733333V256c0-25.6-27.733333-49.066667-66.133334-59.733333 2.133333 0 2.133333-2.133333 2.133334-4.266667 0-23.466667-46.933333-42.666667-106.666667-42.666667-38.4 0-70.4-25.6-81.066667-59.733333-2.133333 8.533333-4.266667 19.2-4.266666 27.733333 0 32 17.066667 59.733333 44.8 74.666667H661.333333c-19.2 0-36.266667-6.4-49.066666-19.2 6.4 21.333333 25.6 38.4 46.933333 46.933333 19.2 42.666667 32 102.4 17.066667 121.6-19.2 23.466667-53.333333 25.6-74.666667 6.4-68.266667-57.6-76.8-157.866667-19.2-226.133333 25.6-32 21.333333-78.933333-8.533333-104.533333-17.066667-10.666667-34.133333-17.066667-51.2-17.066667-215.466667 0-405.333333 110.933333-512 275.2 66.133333-53.333333 145.066667-93.866667 230.4-113.066667C96 253.866667 0 413.866667 0 597.333333c0 32 2.133333 64 8.533333 96C42.666667 514.133333 172.8 366.933333 341.333333 307.2z m437.333334-104.533333c-21.333333 10.666667-53.333333 10.666667-53.333334-10.666667 10.666667-10.666667 53.333333 0 53.333334 10.666667z" p-id="15631" fill="#d4237a"></path></svg>