<?xml version="1.0" standalone="no"?><!DOCTYPE svg PUBLIC "-//W3C//DTD SVG 1.1//EN" "http://www.w3.org/Graphics/SVG/1.1/DTD/svg11.dtd"><svg t="1490536115680" class="icon" style="" viewBox="0 0 1293 1024" version="1.1" xmlns="http://www.w3.org/2000/svg" p-id="4992" xmlns:xlink="http://www.w3.org/1999/xlink" width="40.40625" height="32"><defs><style type="text/css"></style></defs><path d="M591.601904 684.22045a1913.476723 1913.476723 0 0 0 85.342226-46.457214c206.713046-119.376716 343.33606-247.565213 406.662308-342.851007a512.241987 512.241987 0 0 0-66.074878-105.3641c82.297177-5.739783 139.479432 6.763782 154.893311 33.495544 38.534696 66.748561-112.909355 278.851075-441.586061 468.614243-328.649759 189.736221-588.098749 214.87809-626.633446 148.129528-14.443774-25.007132 0.188631-75.452552 39.962905-137.889539a511.110199 511.110199 0 0 0 63.326249 113.717775c53.813838-6.629046 119.107243-22.231556 192.862113-48.289633a107.78936 107.78936 0 1 1 191.245273-83.105597zM953.774154 123.958303A510.005358 510.005358 0 0 0 619.788821 0.000539C337.030382 0.000539 107.78936 229.241561 107.78936 512c0 34.357859 3.395365 67.934244 9.835779 100.405789C16.895982 729.734508-25.465236 839.410182 15.494721 910.44337c45.271531 78.335918 182.002335 92.29464 357.402571 50.202895A509.708937 509.708937 0 0 0 619.788821 1023.999461c277.476761 0 503.376312-220.725662 511.756935-496.181372 131.961124-135.033121 192.996849-265.592984 146.404899-346.27332-42.307324-73.323712-164.836879-90.273589-324.176501-57.613413zM916.209562 431.15798a53.89468 53.89468 0 1 0 0-107.78936 53.89468 53.89468 0 0 0 0 107.78936zM511.999461 215.579259a26.94734 26.94734 0 1 0 0-53.89468 26.94734 26.94734 0 0 0 0 53.89468z m-242.52606 323.368081a53.89468 53.89468 0 1 0 0-107.78936 53.89468 53.89468 0 0 0 0 107.78936z m684.974436 140.799852a80.84202 80.84202 0 0 1-134.467226 89.465169 1821.694082 1821.694082 0 0 0 134.467226-89.465169zM619.788821 538.94734a80.84202 80.84202 0 1 0 0-161.68404 80.84202 80.84202 0 0 0 0 161.68404z" p-id="4993"></path></svg>