<?xml version="1.0" standalone="no"?><!DOCTYPE svg PUBLIC "-//W3C//DTD SVG 1.1//EN" "http://www.w3.org/Graphics/SVG/1.1/DTD/svg11.dtd"><svg t="1508142619314" class="icon" style="" viewBox="0 0 1024 1024" version="1.1" xmlns="http://www.w3.org/2000/svg" p-id="999" xmlns:xlink="http://www.w3.org/1999/xlink" width="32" height="32"><defs><style type="text/css"></style></defs><path d="M461.635368 43.142737c-0.970105-23.498105 21.288421-45.352421 44.921264-42.172632 21.261474 2.829474 37.133474 23.525053 35.786105 44.705684 0.242526 141.258105 0.107789 282.543158 0.053895 423.801264 129.131789 0.215579 258.290526 0.134737 387.422315 0.053894 11.560421 0.997053 23.201684 2.910316 34.789053 0.538948 20.668632-3.260632 37.780211 14.416842 43.223579 32.956631v17.677474c-4.446316 13.446737-13.069474 26.650947-27.055158 31.447579-11.695158 5.254737-24.225684-1.347368-36.325053 0.889263-12.072421 1.913263-24.252632 1.589895-36.405894 1.374316-121.882947 0.161684-243.792842-0.215579-365.67579 0.188631 0.215579 138.455579 0.026947 276.911158 0.10779 415.366737-0.188632 10.401684 0.134737 21.504-5.093053 30.881685-7.949474 15.575579-26.785684 25.977263-44.139789 21.369263-18.324211-4.473263-32.202105-22.420211-31.609264-41.337263-0.458105-142.147368 0.026947-284.294737-0.242526-426.442106-134.979368-0.134737-269.958737 0.161684-404.911158-0.134737-19.752421 0.889263-34.977684-15.575579-40.313263-33.28v-17.785263c5.146947-17.893053 20.506947-34.384842 40.286316-33.576421 135.006316-0.215579 269.985684 0.080842 404.965052-0.134737 0.188632-142.147368-0.215579-284.267789 0.215579-426.38821z" p-id="1000" fill="#515151"></path></svg>