<?xml version="1.0" standalone="no"?><!DOCTYPE svg PUBLIC "-//W3C//DTD SVG 1.1//EN" "http://www.w3.org/Graphics/SVG/1.1/DTD/svg11.dtd"><svg t="1508142694186" class="icon" style="" viewBox="0 0 1024 1024" version="1.1" xmlns="http://www.w3.org/2000/svg" p-id="2552" xmlns:xlink="http://www.w3.org/1999/xlink" width="32" height="32"><defs><style type="text/css"></style></defs><path d="M512.057305 151.631466c-182.953845 0-338.637604 156.828838-338.637604 350.280782l0 324.487326c0 24.090675 13.923104 48.667419 46.486754 27.010167 19.676132-13.018501 37.85619-20.440541 63.056128-20.440541 22.668279 0 42.919509 5.961782 62.135152 16.425088 32.448016 17.763572 64.436568 18.007119 96.53973 0.121773 18.755156-10.585079 39.927361-16.546861 62.480007-16.546861 22.668279 0 43.955094 5.961782 62.59564 16.425088 31.872918 18.007119 64.666812 17.763572 97.114828 0 19.331277-10.463306 41.193191-16.425088 63.745836-16.425088 23.243377 0 48.672536 6.327102 66.852594 17.520025 30.492478 18.614963 56.151881 7.664563 56.151881-33.945113L850.578252 501.911224C850.694909 308.460304 695.01115 151.631466 512.057305 151.631466zM273.361925 616.521518c-5.609765-5.362124-8.413624-11.44261-8.413624-18.243503 0-3.923356 0.651846-7.976672 1.956561-12.161994 1.304715-4.185322 3.456728-10.003841 6.457062-17.458627l73.377194-186.746218c2.087545-5.362124 4.598738-11.802814 7.53358-19.322068 2.934842-7.519254 6.066159-13.764492 9.391904-18.733667 3.326768-4.969175 7.696286-8.990768 13.109576-12.063757 5.41329-3.072989 12.098549-4.609994 20.056801-4.609994 8.088212 0 14.83794 1.537006 20.252253 4.609994 5.41329 3.072989 9.783831 7.02909 13.109576 11.867282 3.326768 4.838192 6.130627 10.036587 8.413624 15.595186 2.282996 5.557576 5.185093 12.979616 8.707312 22.264073l74.941829 185.569416c5.869684 14.123672 8.80555 24.38948 8.80555 30.797423 0 6.66991-2.772136 12.783141-8.316409 18.340717-5.544273 5.557576-12.229532 8.336876-20.055778 8.336876-4.565992 0-8.479115-0.817622-11.740392-2.451842-3.261277-1.63422-6.000668-3.857864-8.218172-6.66991-2.217505-2.812045-4.598738-7.127328-7.141654-12.94687-2.543939-5.819542-4.728698-10.952446-6.5553-15.398712l-13.696953-36.094056L338.716398 551.001269l-13.696953 36.878932c-5.348821 14.385639-9.91379 24.094768-13.696953 29.129434-3.783163 5.034666-9.979282 7.552-18.588357 7.552C285.428751 624.563682 278.971689 621.883643 273.361925 616.521518zM726.500329 707.170075 314.27166 707.170075c-9.03784 0-16.363689-7.333012-16.363689-16.521279 0-9.124821 7.351432-16.521279 16.363689-16.521279L726.500329 674.127518c9.03784 0 16.363689 7.333012 16.363689 16.521279C742.865042 699.773617 735.512586 707.170075 726.500329 707.170075zM755.789399 617.796558c-5.152347 4.511757-10.990309 6.767124-17.512862 6.767124-5.478781 0-10.892071-2.582825-16.240893-7.748475-5.348821-5.16565-11.023054-12.652158-17.023722-22.460548-12.914124 10.069333-25.4046 17.621333-37.471426 22.657023-12.066827 5.034666-25.600051 7.552-40.60172 7.552-13.696953 0-25.731034-2.713808-36.101219-8.140401-10.371208-5.427616-18.36016-12.783141-23.969924-22.067598-5.608741-9.28548-8.413624-19.354813-8.413624-30.209022 0-14.646582 4.630461-27.136034 13.892405-37.467333 9.261944-10.331299 21.980617-17.262152 38.156018-20.793582 3.391237-0.784876 11.80486-2.550079 25.241894-5.296633 13.43601-2.746554 24.948205-5.263887 34.535561-7.552 9.588379-2.289136 19.99131-5.067412 31.209816-8.336876-0.651846-14.123672-3.489474-24.487717-8.511861-31.091112-5.022387-6.604418-15.425318-9.905604-31.209816-9.905604-13.566994 0-23.774473 1.896186-30.622438 5.688559-6.848988 3.792373-12.718673 9.480932-17.610076 17.065677-4.891404 7.584746-8.349155 12.586666-10.371208 15.005762s-6.358825 3.628644-13.012362 3.628644c-6.000668 0-11.18576-1.928932-15.556301-5.786797-4.370541-3.857864-6.5553-8.794293-6.5553-14.810311 0-9.41544 3.326768-18.569938 9.979282-27.462468 6.652514-8.892531 17.023722-16.216333 31.111578-21.970384 14.08888-5.754051 31.633465-8.631588 52.635801-8.631588 23.480784 0 41.939181 2.7793 55.375192 8.336876 13.43601 5.557576 22.926152 14.352893 28.470425 26.383904 5.544273 12.031011 8.316409 27.985378 8.316409 47.863101 0 12.55392-0.032746 23.212678-0.098237 31.974225-0.065492 8.761548-0.162706 18.504446-0.293689 29.227672 0 10.070356 1.662873 20.564361 4.989641 31.484062 3.326768 10.9197 4.989641 17.948791 4.989641 21.087271C763.518431 608.28288 760.942769 613.284801 755.789399 617.796558z" p-id="2553" fill="#8a8a8a"></path><path d="M636.332726 533.054525c-5.739724 1.50426-11.218506 4.446265-16.436344 8.827039-5.217838 4.380774-7.827269 10.495028-7.827269 18.34174 0 8.107655 3.065825 15.005762 9.196453 20.695345 6.130627 5.688559 14.153348 8.53335 24.067138 8.53335 10.56666 0 20.316721-2.320858 29.253254-6.963599 8.93551-4.64274 15.490809-10.624988 19.664875-17.948791 4.826935-8.108678 7.239891-21.447475 7.239891-40.017412l0-7.650237c-7.827269 2.876514-19.208481 5.91778-34.144658 9.121751C652.40989 529.196661 642.072451 531.550265 636.332726 533.054525z" p-id="2554" fill="#8a8a8a"></path><path d="M396.439054 388.581086 353.97901 507.259022 439.682951 507.259022Z" p-id="2555" fill="#8a8a8a"></path></svg>