<?xml version="1.0" standalone="no"?><!DOCTYPE svg PUBLIC "-//W3C//DTD SVG 1.1//EN" "http://www.w3.org/Graphics/SVG/1.1/DTD/svg11.dtd"><svg t="1507450730279" class="icon" style="" viewBox="0 0 1024 1024" version="1.1" xmlns="http://www.w3.org/2000/svg" p-id="4066" xmlns:xlink="http://www.w3.org/1999/xlink" width="16" height="16"><defs><style type="text/css"></style></defs><path d="M512 1024C229.383743 1024 0 794.616257 0 512S229.383743 0 512 0s512 229.383743 512 512-229.383743 512-512 512zM512 38.714556C250.676749 38.714556 38.714556 250.676749 38.714556 512s211.962193 473.285444 473.285444 473.285444 473.285444-211.962193 473.285444-473.285444S773.323251 38.714556 512 38.714556z" p-id="4067" fill="#e6e6e6"></path><path d="M512 544.907372c-10.646503 0-19.357278-8.710775-19.357278-19.357277V250.676749c0-10.646503 8.710775-19.357278 19.357278-19.357278s19.357278 8.710775 19.357278 19.357278v274.873346c0 10.646503-8.710775 19.357278-19.357278 19.357277z" p-id="4068" fill="#e6e6e6"></path><path d="M639.758034 672.665406c-4.839319 0-9.678639-1.935728-13.550094-5.807183L498.449905 539.100189c-7.742911-7.742911-7.742911-19.357278 0-27.100189s19.357278-7.742911 27.10019 0L653.308129 638.79017c7.742911 7.742911 7.742911 19.357278 0 27.100189-3.871456 4.839319-8.710775 6.775047-13.550095 6.775047z" p-id="4069" fill="#e6e6e6"></path></svg>