<?xml version="1.0" standalone="no"?><!DOCTYPE svg PUBLIC "-//W3C//DTD SVG 1.1//EN" "http://www.w3.org/Graphics/SVG/1.1/DTD/svg11.dtd"><svg t="1506494791863" class="icon" style="" viewBox="0 0 1024 1024" version="1.1" xmlns="http://www.w3.org/2000/svg" p-id="4722" xmlns:xlink="http://www.w3.org/1999/xlink" width="48" height="48"><defs><style type="text/css"></style></defs><path d="M898.844 534.756h-45.51c-12.562 0-22.756-10.172-22.756-22.756 0-12.561 10.194-22.756 22.755-22.756h45.511c12.562 0 22.756 10.195 22.756 22.756 0 12.584-10.194 22.756-22.756 22.756z m-128.887 267.4l-24.212-24.212c-8.875-8.897-8.875-23.279 0-32.176 8.897-8.898 23.302-8.898 32.2 0l24.211 24.212c8.898 8.874 8.898 23.279 0 32.176s-23.302 8.898-32.199 0z m7.532-523.537c-8.875 8.875-23.233 8.875-32.108 0-8.852-8.875-8.852-23.233 0-32.108l24.166-24.166c8.875-8.875 23.234-8.875 32.108 0s8.875 23.233 0 32.108l-24.166 24.166zM512 785.089c-150.801 0-273.067-122.265-273.067-273.066S361.2 238.956 512 238.956s273.067 122.266 273.067 273.067S662.8 785.089 512 785.089z m0-498.642c-124.587 0-225.576 100.99-225.576 225.576S387.414 737.599 512 737.599c124.587 0 225.576-100.99 225.576-225.576S636.586 286.447 512 286.447z m0-93.025c-12.561 0-22.756-10.194-22.756-22.755v-45.511c0-12.562 10.195-22.756 22.756-22.756s22.756 10.194 22.756 22.756v45.51c0 12.562-10.195 22.756-22.756 22.756z m-265.42 85.356l-24.213-24.212c-8.897-8.897-8.897-23.279 0-32.176s23.302-8.897 32.2 0l24.211 24.212c8.898 8.875 8.898 23.279 0 32.176s-23.301 8.898-32.199 0z m-75.913 255.978h-45.511c-12.562 0-22.756-10.172-22.756-22.756 0-12.561 10.194-22.756 22.756-22.756h45.51c12.562 0 22.756 10.195 22.756 22.756 0 12.584-10.194 22.756-22.755 22.756zM247.42 744.47c8.875-8.852 23.234-8.852 32.108 0 8.875 8.897 8.875 23.233 0 32.108l-24.166 24.166c-8.875 8.898-23.234 8.898-32.108 0-8.875-8.852-8.875-23.233 0-32.085l24.166-24.19zM512 830.578c12.561 0 22.756 10.194 22.756 22.755v45.511c0 12.584-10.195 22.756-22.756 22.756s-22.756-10.172-22.756-22.756v-45.51c0-12.562 10.195-22.756 22.756-22.756z" fill="#d81e06" p-id="4723"></path></svg>