<?xml version="1.0" standalone="no"?><!DOCTYPE svg PUBLIC "-//W3C//DTD SVG 1.1//EN" "http://www.w3.org/Graphics/SVG/1.1/DTD/svg11.dtd"><svg t="1506494738675" class="icon" style="" viewBox="0 0 1024 1024" version="1.1" xmlns="http://www.w3.org/2000/svg" p-id="3166" xmlns:xlink="http://www.w3.org/1999/xlink" width="48" height="48"><defs><style type="text/css"></style></defs><path d="M943.153694 442.271916l-116.457362-19.025309a329.48106 329.48106 0 0 0-28.195156-68.050886l67.970045-96.883561c5.012154-7.140631 4.166903-16.851806-2.003634-23.022342l-75.999928-75.964113a17.927301 17.927301 0 0 0-12.69923-5.257747 17.910928 17.910928 0 0 0-10.483772 3.382027l-95.457072 68.607564a326.795904 326.795904 0 0 0-68.534909-28.501124L580.965721 81.547271c-1.509377-8.586562-8.974395-14.856359-17.696034-14.856359H455.794907c-8.801457 0-16.311501 6.377244-17.721617 15.063067L419.237293 197.132776c-24.037463 6.827499-47.050596 16.276708-68.671009 28.205389l-95.176686-67.997674a17.945721 17.945721 0 0 0-10.441817-3.345188c-4.631484 0-9.230222 1.782599-12.706393 5.258771l-75.999928 75.965135c-6.16235 6.161327-7.014764 15.862269-2.021029 23.0029l66.99995 95.81523a330.863547 330.863547 0 0 0-28.734438 69.102844L77.57275 442.281125c-8.668427 1.437745-15.018042 8.936533-15.018042 17.72264v107.464547c0 8.713452 6.251378 16.168238 14.829753 17.686825l114.90296 20.36277a327.172481 327.172481 0 0 0 28.717042 69.102844l-67.817572 94.853322c-5.102205 7.150864-4.303003 16.932648 1.904373 23.148209l75.973322 76.044954a17.933441 17.933441 0 0 0 12.710487 5.26798c3.584642 0 7.186679-1.070378 10.301623-3.25616l95.959515-67.206658a328.019779 328.019779 0 0 0 68.814272 28.429493l19.230994 115.504663c1.437745 8.668427 8.936533 15.019065 17.712407 15.019065h107.47478c8.704243 0 16.160051-6.251378 17.686824-14.829753l20.597107-116.061342c23.938202-6.961552 46.8971-16.572444 68.500117-28.67304l96.642061 67.808362a17.885346 17.885346 0 0 0 10.308787 3.263323 17.948791 17.948791 0 0 0 12.712532-5.266957l75.981509-76.044953c6.224772-6.224772 7.014764-16.051581 1.877767-23.192212l-68.930929-95.725178a326.57487 326.57487 0 0 0 28.115338-68.087725l116.600625-20.452821c8.595772-1.509377 14.865569-8.974395 14.865569-17.696034V460.003765c-0.001023-8.803503-6.386454-16.312524-15.072277-17.731849z m-25.860994 105.908098l-97.604992 17.119913a40.932248 40.932248 0 0 0-32.281218 29.057802 286.299585 286.299585 0 0 1-24.593117 59.558468 40.934295 40.934295 0 0 0 2.614547 43.706431l57.517995 79.875188-48.539507 48.579416-80.844259-56.72391a40.905642 40.905642 0 0 0-23.51353-7.425109 40.904619 40.904619 0 0 0-19.999496 5.219885c-18.856463 10.561543-39.019689 18.999726-59.927881 25.081235a40.932248 40.932248 0 0 0-28.871561 32.151257l-17.234523 97.111758h-68.752874l-16.036231-96.313579a40.931225 40.931225 0 0 0-29.141714-32.637328 287.570531 287.570531 0 0 1-60.23078-24.883737 40.888246 40.888246 0 0 0-19.815301-5.118578 40.904619 40.904619 0 0 0-23.484877 7.405667l-80.165808 56.145742-48.589648-48.635697 56.502875-79.027891a40.931225 40.931225 0 0 0 2.459005-43.729968 286.868543 286.868543 0 0 1-25.126261-60.462046 40.934295 40.934295 0 0 0-32.203446-29.020964l-95.943142-17.002233v-68.749803l95.724155-15.945157a40.932248 40.932248 0 0 0 32.602535-29.028127 290.49821 290.49821 0 0 1 25.180496-60.558238 40.931225 40.931225 0 0 0-2.229784-43.348274l-55.961546-80.030731 48.619324-48.596811 79.349209 56.69014a40.901549 40.901549 0 0 0 23.798009 7.626701 40.893362 40.893362 0 0 0 19.770276-5.092995c18.850323-10.400884 39.064714-18.700921 60.080353-24.669866a40.932248 40.932248 0 0 0 29.214369-32.779567l15.689331-96.104825h68.654636l16.996092 96.997148a40.930201 40.930201 0 0 0 28.988218 32.267914 286.443871 286.443871 0 0 1 59.954487 24.931832 40.887222 40.887222 0 0 0 19.906376 5.16872c8.40953 0 16.789385-2.588965 23.893176-7.694239l79.616292-57.223283 48.548716 48.526203-56.889685 81.089853a40.933271 40.933271 0 0 0-2.315741 43.310412 289.077861 289.077861 0 0 1 24.692378 59.600423 40.932248 40.932248 0 0 0 32.727379 29.045523l97.195669 15.878642v68.656683z m-241.039775-34.538631c0 22.428825-4.431939 44.184315-13.173021 64.661696-4.440126 10.394744-16.46602 15.222703-26.858718 10.787693-10.394744-4.438079-15.22475-16.46295-10.787694-26.858717 6.560416-15.368012 9.887184-31.716352 9.887185-48.590672 0-68.308759-55.573713-123.882472-123.882472-123.882472-68.308759 0-123.883495 55.573713-123.883495 123.882472s55.573713 123.882472 123.883495 123.882472c17.153682 0 33.749662-3.433192 49.327452-10.20441 10.363022-4.507664 22.421662 0.243547 26.927279 10.610662 4.505617 10.366092-0.24457 22.421662-10.610662 26.92728-20.756743 9.022491-42.842761 13.597693-65.644069 13.597692-90.879823 0-164.815743-73.935919-164.815743-164.814719 0-90.879823 73.935919-164.81472 164.815743-164.81472s164.81472 73.936943 164.81472 164.815743z" p-id="3167" fill="#d81e06"></path></svg>