<?xml version="1.0" standalone="no"?><!DOCTYPE svg PUBLIC "-//W3C//DTD SVG 1.1//EN" "http://www.w3.org/Graphics/SVG/1.1/DTD/svg11.dtd"><svg t="1490536013009" class="icon" style="" viewBox="0 0 1024 1024" version="1.1" xmlns="http://www.w3.org/2000/svg" p-id="2876" xmlns:xlink="http://www.w3.org/1999/xlink" width="32" height="32"><defs><style type="text/css"></style></defs><path d="M981.333333 85.333333 981.333333 42.666667l-213.333333 0 0 42.666667-42.666667 0 0 426.666667-85.333333 0L640 298.666667l-170.666667 0 0 42.666667-42.666667 0 0 85.333333 128 0 0 42.666667-128 0 0 85.333333 128 0 0 42.666667-128 0 0 42.666667L341.333333 640 341.333333 341.333333 256 341.333333 256 213.333333 0 128l0 853.333333 1024 0L1024 85.333333 981.333333 85.333333zM85.333333 298.666667l85.333333 0 0 42.666667L85.333333 341.333333 85.333333 298.666667zM256 853.333333 85.333333 853.333333l0-42.666667 170.666667 0L256 853.333333zM256 725.333333 85.333333 725.333333l0-42.666667 170.666667 0L256 725.333333zM256 597.333333 85.333333 597.333333l0-42.666667 170.666667 0L256 597.333333zM256 469.333333 85.333333 469.333333l0-42.666667 170.666667 0L256 469.333333zM554.666667 853.333333l-128 0 0-42.666667 128 0L554.666667 853.333333zM554.666667 725.333333l-128 0 0-42.666667 128 0L554.666667 725.333333zM938.666667 853.333333l-128 0 0-42.666667 128 0L938.666667 853.333333zM938.666667 725.333333l-128 0 0-42.666667 128 0L938.666667 725.333333zM938.666667 597.333333l-128 0 0-42.666667 128 0L938.666667 597.333333zM938.666667 469.333333l-128 0 0-42.666667 128 0L938.666667 469.333333zM938.666667 341.333333l-128 0L810.666667 298.666667l128 0L938.666667 341.333333zM938.666667 213.333333l-128 0L810.666667 170.666667l128 0L938.666667 213.333333z" p-id="2877"></path></svg>